<?xml version="1.0" encoding="utf-8"?>
<!-- Generator: Adobe Illustrator 22.1.0, SVG Export Plug-In . SVG Version: 6.00 Build 0)  -->
<svg width="31" height="25" version="1.1" id="Ebene_1" xmlns="http://www.w3.org/2000/svg" xmlns:xlink="http://www.w3.org/1999/xlink" x="0px" y="0px"
	 viewBox="0 0 31 25" style="enable-background:new 0 0 31 25;" xml:space="preserve">
<path d="M17.8,18.3v4.1c0,0.8-0.6,1.4-1.4,1.4H2.6c-0.8,0-1.4-0.6-1.4-1.4v-7.6l8.2,3.9l5.8-2.7c-0.1-0.1-0.2-0.2-0.3-0.3
	c-0.2-0.2-0.4-0.4-0.6-0.6l-4.9,2.3l-8.2-3.9l0,0.1c0-0.8,0.6-1.4,1.4-1.4h9.3c-0.3-0.4-0.6-0.8-0.8-1.2H2.6C1.2,11,0,12.2,0,13.6
	v8.8C0,23.8,1.2,25,2.6,25h13.8c1.4,0,2.6-1.2,2.6-2.6v-3.2C18.6,19,18.2,18.6,17.8,18.3z"/>
<path d="M25.1,20.3C25.1,20.3,25.1,20.3,25.1,20.3c-2.5-0.1-5.6-2-9.2-5.6c-3.6-3.6-5.4-6.7-5.5-9.2c0-1.2,3.4-3.8,3.4-3.8
	c0.8-0.5,1.6-0.3,2,0.2c0.2,0.3,2.2,3.3,2.4,3.6c0.3,0.4,0.2,1-0.1,1.6c-0.1,0.3-0.6,1-0.9,1.5c0.3,0.4,1,1.3,2.2,2.5
	c0.7,0.7,2.2,1.8,2.9,2.3l1.1-0.8c0,0,0.1,0,0.1-0.1c0.6-0.3,1.2-0.3,1.6-0.1c0.4,0.2,3.4,2.3,3.6,2.4c0.2,0.2,0.4,0.5,0.5,0.8
	c0.1,0.4,0,0.8-0.3,1.2C28.9,17,26.3,20.3,25.1,20.3z M14.8,2.6c-0.1,0-0.2,0-0.3,0.1c-0.6,0.4-2.8,2.3-2.9,2.9
	c0.1,2.6,2.8,6,5.2,8.3c2.3,2.3,5.7,5.1,8.4,5.2c0.5-0.1,2.4-2.2,2.9-2.9c0.1-0.2,0.1-0.3,0.1-0.4c-0.2-0.1-3.2-2.1-3.5-2.4
	c0,0-0.1,0-0.4,0.1l-1.4,1.1c-0.2,0.2-0.5,0.2-0.7,0C22,14.6,19.6,13,18.7,12c-2-2-2.6-3-2.6-3.1c-0.1-0.2-0.1-0.4,0-0.6
	c0,0,0.8-1.4,1-1.8c0.1-0.2,0.1-0.4,0.1-0.4C17,5.8,15.1,2.9,14.8,2.6C14.9,2.6,14.9,2.6,14.8,2.6z"/>
</svg>
