<?xml version="1.0" encoding="utf-8"?>
<!-- Generator: Adobe Illustrator 22.1.0, SVG Export Plug-In . SVG Version: 6.00 Build 0)  -->
<svg width="17" height="22" version="1.1" id="Ebene_1" xmlns="http://www.w3.org/2000/svg" xmlns:xlink="http://www.w3.org/1999/xlink" x="0px" y="0px"
	 viewBox="0 0 17 22" style="enable-background:new 0 0 17 22;" xml:space="preserve">
<style type="text/css">
	.st0{fill:none;stroke:#000000;stroke-width:1.2;}
	.st1{filter:url(#Adobe_OpacityMaskFilter);}
	.st2{fill:#FFFFFF;}
	.st3{mask:url(#mask-2_1_);fill:none;stroke:#000000;stroke-width:1.2;}
</style>
<path id="Fill-5" class="st0" d="M3.1,7.8h11.2c0.8,0,1.4,0.5,1.4,1.3c0,0,0,0,0,0l0.7,10.2c0,0.7-0.6,1.3-1.4,1.3h0H2.4
	c-0.8,0-1.4-0.5-1.4-1.3v0L1.7,9C1.7,8.3,2.3,7.7,3.1,7.8L3.1,7.8z"/>
<defs>
	<filter id="Adobe_OpacityMaskFilter" filterUnits="userSpaceOnUse" x="4.4" y="0.9" width="8.7" height="12.1">
		<feColorMatrix  type="matrix" values="1 0 0 0 0  0 1 0 0 0  0 0 1 0 0  0 0 0 1 0"/>
	</filter>
</defs>
<mask maskUnits="userSpaceOnUse" x="4.4" y="0.9" width="8.7" height="12.1" id="mask-2_1_">
	<g class="st1">
		<rect id="path-1_2_" x="1" class="st2" width="15.4" height="6.9"/>
	</g>
</mask>
<path id="Rectangle-2" class="st3" d="M8.8,1.5C6.7,1.5,5,3.1,5,5.2v3.4c0,2.1,1.7,3.8,3.8,3.8s3.8-1.7,3.8-3.8V5.2
	C12.5,3.1,10.8,1.5,8.8,1.5z"/>
</svg>
