<svg id="Capa_1" enable-background="new 0 0 511.921 511.921" height="512" viewBox="0 0 511.921 511.921" width="512" xmlns="http://www.w3.org/2000/svg"><g><path d="m407.307 339.124c9.982-37.814 29.441-71.623 56.271-97.769.518-.504 1.034-1.014 1.547-1.527 58.463-58.463 62.73-149.324 9.51-202.543l-281.53 253.246-139.331 167.616c34.903 34.904 81.819 53.774 133.1 53.774 3.673 0 7.376-.097 11.091-.292 54.986-2.884 107.731-26.935 148.518-67.721 29.476-29.477 50.509-65.711 60.824-104.784z" fill="#00aa95"/><path d="m272.092 46.796c-.513.513-1.022 1.029-1.525 1.544-26.147 26.832-59.956 46.291-97.77 56.274-39.073 10.315-75.306 31.348-104.783 60.825-40.787 40.787-64.838 93.531-67.722 148.518-2.915 55.58 16.079 106.788 53.482 144.19l420.861-420.861c-53.22-53.221-144.081-48.953-202.543 9.51z" fill="#00cc76"/><path d="m363.797 327.639c12.063-45.696 35.708-86.677 68.382-118.517.379-.369.753-.739 1.127-1.112 40.917-40.918 45.184-103.231 9.51-138.904l-249.71 221.426-107.513 135.796c26.174 26.175 62.165 40.59 101.34 40.591h.004c2.861 0 5.778-.077 8.67-.228 43.863-2.3 86.145-21.692 119.055-54.602 23.858-23.858 40.848-53.06 49.135-84.45z" fill="#a5e887"/><path d="m382.091 44.944c-28.286 0-56.781 12.273-78.18 33.671-.375.375-.746.751-1.114 1.128-31.837 32.672-72.819 56.317-118.515 68.38-31.39 8.287-60.592 25.277-84.45 49.135-32.91 32.911-52.302 75.192-54.602 119.055-2.238 42.677 12.096 81.747 40.363 110.014l357.223-357.222c-15.581-15.58-37.147-24.161-60.725-24.161z" fill="#cf9"/><path d="m323.4 300.894c4.659-33.305-4.934-64.67-26.317-86.055l-103.977 75.693-75.693 103.977c17.721 17.72 42.429 27.478 69.575 27.478 34.403 0 69.341-15.206 95.855-41.719 22.081-22.082 36.485-50.271 40.557-79.374z" fill="#724435"/><path d="m297.082 214.838c-17.721-17.72-42.429-27.479-69.575-27.479-34.403 0-69.341 15.206-95.854 41.719-22.082 22.083-36.485 50.272-40.557 79.375-4.659 33.305 4.933 64.67 26.317 86.055z" fill="#a05f4b"/></g></svg>